<svg width="404" height="270" viewBox="0 0 404 270" fill="none" xmlns="http://www.w3.org/2000/svg">
<mask id="mask0" mask-type="alpha" maskUnits="userSpaceOnUse" x="0" y="0" width="404" height="270">
<rect width="404" height="270" fill="#C4C4C4"/>
</mask>
<g mask="url(#mask0)">
<path fill-rule="evenodd" clip-rule="evenodd" d="M240.473 261.799C242.15 263.05 303.279 255.862 303.279 255.862L320.828 191.877C322.278 186.592 318.176 181.42 312.7 181.628L243.012 184.264C239.424 184.4 236.353 186.877 235.462 190.355L220.224 249.814L189.051 255.862L240.473 261.799" fill="#B3E0D0"/>
<path fill-rule="evenodd" clip-rule="evenodd" d="M296.638 249.047H228.242L241.752 192.259L312.05 190.705L296.638 249.047" fill="#FFFFFE"/>
<path fill-rule="evenodd" clip-rule="evenodd" d="M238.793 268.197H438.001C438.001 278.124 429.953 286.171 420.026 286.171H346.411L344.228 475.776L376.093 476.219C382.399 476.307 387.763 480.395 390.089 486.173H286.704C288.83 479.7 294.662 475.088 301.48 475.183L330.387 475.584L332.567 286.171H256.765C246.839 286.171 238.793 278.124 238.793 268.197Z" fill="#3A3B39"/>
<path fill-rule="evenodd" clip-rule="evenodd" d="M213.138 273.15H463.653V255.738H213.138V273.15Z" fill="#7DB1A1"/>
<path fill-rule="evenodd" clip-rule="evenodd" d="M387.605 243.256C387.605 246.366 385.075 248.897 381.965 248.897H381.902V233.247H381.965C385.075 233.247 387.605 235.778 387.605 238.888V243.256ZM381.965 228.602H381.902V225.253H355.899V254.279C355.899 255.721 357.068 256.891 358.51 256.891H379.291C380.733 256.891 381.902 255.721 381.902 254.279V253.541H381.965C387.636 253.541 392.251 248.927 392.251 243.256V238.888C392.251 233.216 387.636 228.602 381.965 228.602V228.602Z" fill="#E73A5E"/>
<path fill-rule="evenodd" clip-rule="evenodd" d="M180.08 155.912C180.08 155.912 177.947 139.71 180.08 139.71C182.211 139.71 183.916 147.811 183.916 147.811C183.916 147.811 192.231 132.035 193.296 132.461C194.362 132.888 188.607 147.384 188.607 147.384C188.607 147.384 196.708 133.101 197.773 133.314C198.84 133.527 192.018 149.303 192.018 149.303C192.018 149.303 199.265 137.365 200.119 137.578C200.972 137.791 195.001 150.582 195.001 150.582C195.001 150.582 202.251 142.055 203.103 142.268C203.956 142.481 201.184 149.516 186.474 164.013L180.08 155.912" fill="#F9B6A8"/>
<path fill-rule="evenodd" clip-rule="evenodd" d="M184.257 147.445L190.654 153.415L189.971 154.147L183.574 148.177L184.257 147.445" fill="#CC395D"/>
<path fill-rule="evenodd" clip-rule="evenodd" d="M139.742 182.63L180.242 155.63L187.742 165.13L151.742 206.63L139.742 182.63" fill="#0080A3"/>
<path fill-rule="evenodd" clip-rule="evenodd" d="M78.2418 50.2959C78.2418 50.2959 84.5748 51.6289 85.5748 60.6289C86.5748 69.6289 89.7778 78.6289 89.7778 78.6289L85.5748 81.9629C85.5748 81.9629 88.9098 93.9629 82.5748 95.9629L78.2418 97.6289V105.629L54.2728 108.963L55.5748 93.9629L61.5748 58.9629L78.2418 50.2959" fill="#F9B6A8"/>
<path fill-rule="evenodd" clip-rule="evenodd" d="M55.5758 93.963C55.5758 93.963 50.9078 54.296 59.2428 51.296C67.5758 48.296 76.5758 45.214 76.5758 45.214C76.5758 45.214 80.2428 36.296 86.2428 37.296C92.2428 38.296 90.9078 52.296 79.9078 55.296C68.9078 58.296 72.0258 76.296 72.0258 76.296C72.0258 76.296 67.2428 69.963 64.9078 74.296C62.5768 78.63 68.5768 81.963 70.5758 82.963V90.296L55.5758 93.963" fill="#523B5D"/>
<path fill-rule="evenodd" clip-rule="evenodd" d="M85.5758 81.9629C85.5758 81.9629 78.0758 83.4629 76.5758 91.7959C76.5758 91.7959 89.7428 89.9629 85.5758 81.9629" fill="#523B5D"/>
<path fill-rule="evenodd" clip-rule="evenodd" d="M81.0758 69.9629C81.0758 68.9499 80.2548 68.1299 79.2428 68.1299C78.2298 68.1299 77.4078 68.9499 77.4078 69.9629C77.4078 70.9759 78.2298 71.7959 79.2428 71.7959C80.2548 71.7959 81.0758 70.9759 81.0758 69.9629" fill="#3A3B39"/>
<path fill-rule="evenodd" clip-rule="evenodd" d="M75.7258 67.031C75.5398 67.031 75.3538 66.963 75.2098 66.824C74.9088 66.539 74.8968 66.065 75.1828 65.764C76.8958 63.96 79.7068 63.345 82.0198 64.267C82.4038 64.421 82.5918 64.858 82.4378 65.242C82.2858 65.628 81.8488 65.814 81.4628 65.661C79.7378 64.969 77.5518 65.449 76.2688 66.798C76.1228 66.953 75.9238 67.031 75.7258 67.031" fill="#3A3B39"/>
<path fill-rule="evenodd" clip-rule="evenodd" d="M71.7038 81.337C71.5778 81.337 71.4498 81.289 71.3528 81.194L66.3888 76.324C66.1918 76.13 66.1888 75.814 66.3818 75.617C66.5748 75.42 66.8918 75.416 67.0888 75.61L72.0528 80.48C72.2498 80.673 72.2528 80.99 72.0598 81.187C71.9618 81.287 71.8328 81.337 71.7038 81.337" fill="#CC395D"/>
<path fill-rule="evenodd" clip-rule="evenodd" d="M18.7418 149.13C18.7418 149.13 24.2418 103.736 71.7038 103.736C131.736 103.736 155.742 221.63 179.742 251.13L241.742 241.13L246.742 256.63C246.742 256.63 155.742 305.63 132.742 266.13L141.742 313.63C141.742 313.63 36.7418 332.13 14.2418 322.13C14.2418 322.13 10.7418 187.13 18.7418 149.13" fill="#00AEC8"/>
<path fill-rule="evenodd" clip-rule="evenodd" d="M132.742 266.13L106.742 222.63L136.03 283.481L132.742 266.13" fill="#0080A3"/>
<path fill-rule="evenodd" clip-rule="evenodd" d="M241.742 241.13L255.742 238.63L269.742 243.63V248.13H255.742L245.589 253.055L241.742 241.13" fill="#F9B6A8"/>
<path fill-rule="evenodd" clip-rule="evenodd" d="M318.537 184.715C317.783 184.36 317.028 184.008 316.253 183.711C318.798 181.659 319.389 177.575 317.531 174.885C315.673 172.195 311.644 171.301 308.824 172.955C311.635 168.758 314.502 164.43 315.572 159.494C316.642 154.557 315.511 148.802 311.502 145.728C307.842 142.922 302.614 142.971 298.309 144.627C294.501 146.091 291.067 148.805 289.316 152.49C287.565 156.175 287.727 160.854 290.22 164.084C287.131 164.663 284.337 166.492 282.434 168.987C282.575 167.903 282.487 166.799 282.119 165.763C281.168 163.087 278.227 161.162 275.439 161.698C274.049 161.966 272.842 162.898 272.101 164.096C271.707 159.924 268.596 155.918 264.456 154.828C258.973 153.383 252.802 156.859 250.732 162.138C248.66 167.417 250.546 173.838 254.812 177.573C252.242 175.761 248.59 175.637 245.903 177.271C243.388 178.799 241.851 181.784 242.012 184.715H318.537" fill="#B3E0D0"/>
<path fill-rule="evenodd" clip-rule="evenodd" d="M270.187 146.392C270.187 144.695 268.811 143.319 267.114 143.319C265.417 143.319 264.042 144.695 264.042 146.392C264.042 148.089 265.417 149.465 267.114 149.465C268.811 149.465 270.187 148.089 270.187 146.392" fill="#B3E0D0"/>
<path fill-rule="evenodd" clip-rule="evenodd" d="M245.365 167.884C245.365 166.954 244.611 166.202 243.683 166.202C242.753 166.202 242 166.954 242 167.884C242 168.813 242.753 169.566 243.683 169.566C244.611 169.566 245.365 168.813 245.365 167.884" fill="#B3E0D0"/>
<path fill-rule="evenodd" clip-rule="evenodd" d="M283.098 85.6455L269.54 173.353H276.319L283.098 85.6455" fill="#B3E0D0"/>
<path fill-rule="evenodd" clip-rule="evenodd" d="M280.471 173.353C279.164 171.65 286.588 97.0107 286.588 97.0107L293.121 169.506L280.471 173.353" fill="#B3E0D0"/>
<path fill-rule="evenodd" clip-rule="evenodd" d="M294.668 153.324L291.621 95.0845L300.216 148.421L294.668 153.324" fill="#B3E0D0"/>
<path fill-rule="evenodd" clip-rule="evenodd" d="M286.979 77.4399C306.739 77.4399 286.979 113.911 286.979 113.911C286.979 113.911 267.22 77.4399 286.979 77.4399" fill="#F57100"/>
<path fill-rule="evenodd" clip-rule="evenodd" d="M286.979 99.7421C286.979 99.7421 276.773 80.9033 286.979 80.9033C297.185 80.9033 286.979 99.7421 286.979 99.7421" fill="#FB9300"/>
<path fill-rule="evenodd" clip-rule="evenodd" d="M271.819 74.0621L280.219 66.1503V47.5132L274.222 53.0128C270.585 56.3473 269.004 61.273 270.047 66.0146L271.819 74.0621" fill="#0080A3"/>
<path fill-rule="evenodd" clip-rule="evenodd" d="M302.458 74.0621L304.229 66.0146C305.273 61.273 303.691 56.3473 300.055 53.0128L294.057 47.5132V66.1503L302.458 74.0621" fill="#0080A3"/>
<path fill-rule="evenodd" clip-rule="evenodd" d="M287.481 13.1421L287.371 13.0005C282.166 19.4108 279.325 27.4169 279.325 35.6742V68.9253H295.126V35.3136C295.126 27.2765 292.435 19.4714 287.481 13.1421" fill="#B3E0D0"/>
<path fill-rule="evenodd" clip-rule="evenodd" d="M279.556 31.6744H294.934C294.249 24.9414 291.682 18.5101 287.481 13.1422L287.37 13C283.011 18.3691 280.318 24.8575 279.556 31.6744" fill="#00AEC8"/>
<path fill-rule="evenodd" clip-rule="evenodd" d="M292.536 41.2246C292.536 38.2077 290.09 35.7617 287.073 35.7617C284.056 35.7617 281.611 38.2077 281.611 41.2246C281.611 44.2416 284.056 46.6875 287.073 46.6875C290.09 46.6875 292.536 44.2416 292.536 41.2246" fill="#7DB1A1"/>
<path fill-rule="evenodd" clip-rule="evenodd" d="M291.1 41.2244C291.1 39.0005 289.298 37.1978 287.074 37.1978C284.85 37.1978 283.046 39.0005 283.046 41.2244C283.046 43.4484 284.85 45.2511 287.074 45.2511C289.298 45.2511 291.1 43.4484 291.1 41.2244" fill="#FFFFFE"/>
<path fill-rule="evenodd" clip-rule="evenodd" d="M292.536 56.7608C292.536 53.7438 290.09 51.2979 287.073 51.2979C284.056 51.2979 281.611 53.7438 281.611 56.7608C281.611 59.7777 284.056 62.2237 287.073 62.2237C290.09 62.2237 292.536 59.7777 292.536 56.7608" fill="#7DB1A1"/>
<path fill-rule="evenodd" clip-rule="evenodd" d="M291.1 56.7606C291.1 54.5366 289.298 52.7339 287.074 52.7339C284.85 52.7339 283.046 54.5366 283.046 56.7606C283.046 58.9845 284.85 60.7872 287.074 60.7872C289.298 60.7872 291.1 58.9845 291.1 56.7606" fill="#FFFFFE"/>
<path fill-rule="evenodd" clip-rule="evenodd" d="M279.325 68.9253L276.405 79.7404H297.553L295.126 68.9253H279.325" fill="#00AEC8"/>
<path fill-rule="evenodd" clip-rule="evenodd" d="M295.892 72.3372L295.126 68.9258H279.325L278.404 72.3372H295.892" fill="#0080A3"/>
<path fill-rule="evenodd" clip-rule="evenodd" d="M280.255 27.5952C279.947 28.9376 279.71 30.2987 279.556 31.6743H294.934C294.794 30.2999 294.572 28.9382 294.277 27.5952H280.255" fill="#0080A3"/>
</g>
</svg>
