<?xml version="1.0" encoding="UTF-8" standalone="no"?>
<!DOCTYPE svg PUBLIC "-//W3C//DTD SVG 1.1//EN" "http://www.w3.org/Graphics/SVG/1.1/DTD/svg11.dtd">
<svg width="100%" height="100%" viewBox="0 0 611 657" version="1.1" xmlns="http://www.w3.org/2000/svg" xmlns:xlink="http://www.w3.org/1999/xlink" xml:space="preserve" xmlns:serif="http://www.serif.com/" style="fill-rule:evenodd;clip-rule:evenodd;stroke-linejoin:round;stroke-miterlimit:2;">
    <g id="Illustration-kit">
        <g id="Illustration">
            <g id="Coding">
                <path id="Chair" d="M110.584,637.993C106.46,638.043 102.336,637.931 98.219,637.616C94.619,637.34 90.704,637.117 87.851,634.99C85.826,633.48 84.819,632.047 84.647,630.698L70.53,634.162C73.933,634.506 77.246,636.967 77.753,640.417C78.51,645.57 72.646,650.434 67.722,648.738C62.9,647.078 60.846,640.521 63.133,635.963C65.661,630.919 82.397,626.979 90.073,624.601C91.192,624.053 92.455,623.533 93.835,623.04L93.904,622.911C93.896,622.952 93.874,622.995 93.84,623.039C100.188,620.775 109.024,619.102 117.764,618.129L122.758,474.707L132.754,475.055L127.8,617.317C134.152,617.002 139.851,617.126 143.729,617.738C148.535,618.495 154.287,620.935 155.628,624.884C163.647,627.286 179.206,631.115 181.637,635.963C183.923,640.521 181.869,647.078 177.048,648.738C172.123,650.434 166.259,645.57 167.016,640.417C167.523,636.967 170.837,634.506 174.239,634.162L155.173,629.484C153.35,632.736 148.535,634.097 144.452,634.736C135.166,636.191 125.792,637.377 116.402,637.819L114.731,643.58C116.822,641.646 119.167,641.564 121.097,642.54C123.956,643.986 125.904,647.753 124.77,651.258C121.666,660.857 110.186,655.377 109.042,647.919C108.927,647.171 109.658,641.759 110.584,637.993Z" style="fill:rgb(58,59,57);"/>
                <g id="Table" transform="matrix(1,0,0,1,183.135,272.5)">
                    <path id="Shape" d="M131.194,166.794L131.194,237.968L0,278.729L0,52.037L141.375,41.333L284.584,63L284.584,195.019L131.194,166.794Z" style="fill:rgb(125,177,161);"/>
                    <path id="Shape1" serif:id="Shape" d="M254.194,331.367L380.286,288.128L380.286,81.128L254.194,124.909L254.194,331.367Z" style="fill:rgb(179,224,208);"/>
                    <path id="Shape2" serif:id="Shape" d="M254.194,124.909L380.286,81.128L380.286,58.128L254.194,103L254.194,124.909Z" style="fill:rgb(125,177,161);"/>
                    <path id="Shape3" serif:id="Shape" d="M261.194,108.667L392.286,61.128L392.286,50.623L61.01,0L49.194,73.133L261.194,108.667Z" style="fill:rgb(179,224,208);"/>
                </g>
                <g id="Notebook" transform="matrix(1,0,0,1,242.376,195.816)">
                    <path id="Shape4" serif:id="Shape" d="M127.939,146.331C124.819,148.516 120.901,149.232 117.21,148.292L0,118.454L63.778,86.489L184.942,106.42L127.939,146.331Z" style="fill:rgb(255,255,254);"/>
                    <path id="Shape5" serif:id="Shape" d="M209.976,18.212C211.631,13.381 208.441,8.246 203.377,7.588L98.11,0.068C94.258,-0.432 90.594,1.882 89.392,5.576L63.778,86.49C102.623,96.741 139.437,105.989 184.942,106.42L209.976,18.212Z" style="fill:rgb(179,224,208);"/>
                    <path id="Shape6" serif:id="Shape" d="M96.09,7.588L200.494,15.887L178.953,100.184L72.399,80.422L96.09,7.588Z" style="fill:rgb(58,59,57);"/>
                    <path id="Combined-Shape" d="M180.831,26.972L180.409,30.95L165.186,29.335L165.608,25.357L180.831,26.972ZM150.115,23.712L149.692,27.69L102.408,22.672L102.831,18.694L150.115,23.712ZM178.256,35.249L177.834,39.227L123.121,33.421L123.544,29.443L178.256,35.249ZM113.313,28.357L112.891,32.335L99.834,30.95L100.256,26.972L113.313,28.357ZM175.681,43.526L175.259,47.504L144.337,44.223L144.759,40.245L175.681,43.526ZM128.763,38.547L128.341,42.525L97.259,39.227L97.681,35.249L128.763,38.547ZM113.313,49.087L112.891,53.065L93.535,51.011L93.957,47.033L113.313,49.087ZM158.481,53.856L158.059,57.834L127.137,54.553L127.559,50.575L158.481,53.856ZM125.076,62.199L124.58,66.169L91.024,61.978L91.519,58.008L125.076,62.199Z" style="fill:rgb(179,224,208);"/>
                </g>
                <path id="Chair1" serif:id="Chair" d="M117.064,487.167C53.176,481.605 51.185,437.213 51.185,437.213L193.663,457.167C193.663,457.167 178.33,492.5 117.064,487.167Z" style="fill:rgb(82,59,93);"/>
                <g id="Man" transform="matrix(1,0,0,1,24.1679,20.5692)">
                    <path id="Shape7" serif:id="Shape" d="M261.804,258.213L263.804,270.705L215.471,276.213L219.304,254.713L261.804,258.213Z" style="fill:rgb(0,128,163);"/>
                    <path id="Shape8" serif:id="Shape" d="M291.804,261.729L295.804,270.705L274.304,270.705L278.804,276.213L272.804,276.213L263.804,270.705L261.804,258.213L291.804,261.729Z" style="fill:rgb(249,182,168);"/>
                    <path id="Shape9" serif:id="Shape" d="M139.327,606.098L177.66,599.431C177.66,599.431 169.193,591.898 156.66,591.798L162.66,575.098L149.66,575.098L139.327,606.098Z" style="fill:rgb(251,147,0);"/>
                    <path id="Shape10" serif:id="Shape" d="M208.161,615.265L251.828,610.265C251.828,610.265 242.161,601.55 228.495,601.931L235.495,590.598L219.828,592.598L208.161,615.265Z" style="fill:rgb(251,147,0);"/>
                    <path id="Shape11" serif:id="Shape" d="M139.327,583.298L160.161,583.298L260.274,421.306L194.561,421.306L139.327,583.298Z" style="fill:rgb(204,57,93);"/>
                    <path id="Shape12" serif:id="Shape" d="M340.661,275.431L358.161,281.931L358.161,291.931L327.495,293.264L318.299,277.983L340.661,275.431Z" style="fill:rgb(249,182,168);"/>
                    <path id="Shape13" serif:id="Shape" d="M208.161,47.681L201.411,48.681C201.411,48.681 200.661,65.931 197.661,65.681C194.661,65.431 185.661,65.684 185.661,65.684L175.411,76.431L131.161,76.431L160.161,50.431L182.911,19.931L208.161,19.931L208.161,47.681Z" style="fill:rgb(249,182,168);"/>
                    <path id="Shape14" serif:id="Shape" d="M182.161,12.431C189.661,11.431 203.161,12.431 204.161,8.431C205.161,4.431 205.161,-1.069 210.411,0.181C213.816,0.992 219.475,21.25 205.161,23.681C191.911,25.931 187.143,21.181 187.143,21.181C189.337,23.207 190.351,26.208 189.838,29.149L187.172,44.431L183.661,43.931C183.661,43.931 180.661,35.931 177.161,38.431C173.661,40.931 180.661,46.931 180.661,46.931L176.661,53.931L160.161,50.431C160.161,50.431 174.661,13.431 182.161,12.431Z" style="fill:rgb(82,59,93);"/>
                    <path id="Combined-Shape1" serif:id="Combined-Shape" d="M203.305,37.931C202.846,40.074 200.941,41.681 198.661,41.681C196.531,41.681 194.728,40.278 194.126,38.347L182.033,40.71L180.415,38.76L193.951,36.313C194.253,33.982 196.247,32.181 198.661,32.181C200.941,32.181 202.846,33.788 203.305,35.931L208.161,35.931L208.161,37.931L203.305,37.931Z" style="fill:rgb(255,255,254);"/>
                    <path id="Shape15" serif:id="Shape" d="M181.953,45.906C181.01,43.989 179.675,42.217 178.092,40.783C177.887,40.598 177.872,40.282 178.057,40.077C178.242,39.873 178.559,39.857 178.763,40.042C180.44,41.56 181.853,43.436 182.85,45.466C182.972,45.713 182.87,46.013 182.622,46.135C182.551,46.17 182.476,46.186 182.402,46.186C182.217,46.186 182.04,46.083 181.953,45.906Z" style="fill:rgb(204,57,93);"/>
                    <path id="Shape16" serif:id="Shape" d="M202.144,30.334C201.323,29.283 199.985,28.628 198.652,28.624L198.641,28.624C197.31,28.624 195.974,29.272 195.15,30.316C194.894,30.642 194.423,30.698 194.097,30.441C193.772,30.185 193.716,29.713 193.972,29.388C195.091,27.97 196.834,27.124 198.64,27.124L198.655,27.124C200.466,27.129 202.212,27.984 203.327,29.412C203.582,29.738 203.524,30.209 203.197,30.464C203.06,30.571 202.897,30.623 202.736,30.623C202.513,30.623 202.292,30.524 202.144,30.334Z" style="fill:rgb(58,59,57);"/>
                    <path id="Shape17" serif:id="Shape" d="M108.162,71.931C64.828,71.375 42.791,121.745 36.649,138.551C35.307,142.223 33.894,145.862 32.361,149.459C24.807,167.173 2.377,225.959 0.162,303.968C-2.505,397.931 28.162,431.264 64.162,436.597C100.162,441.931 169.495,436.597 169.495,436.597C192.779,413.616 209.619,388.088 221.495,360.597L214.432,213.931L249.495,95.264C229.495,69.931 160.162,72.597 108.162,71.931Z" style="fill:rgb(0,174,200);"/>
                    <path id="Shape18" serif:id="Shape" d="M187.298,195.931C187.298,195.931 160.783,276.764 175.783,317.431C180.499,330.218 199.956,334.465 219.977,332.431L214.432,213.931L187.298,195.931Z" style="fill:rgb(0,128,163);"/>
                    <path id="Shape19" serif:id="Shape" d="M236.161,293.264C259.494,178.597 269.494,120.597 249.494,95.264C217.118,110.888 190.901,135.997 187.296,195.931C187.296,195.931 166.161,271.264 181.161,311.931C196.161,352.597 327.494,293.264 327.494,293.264L322.161,277.264L236.161,293.264Z" style="fill:rgb(0,174,200);"/>
                    <path id="Shape20" serif:id="Shape" d="M307.319,436.598L214.432,595.298L238.407,595.298C238.407,595.298 410.646,415.806 358.162,376.309C338.23,361.31 221.495,360.598 221.495,360.598L169.495,436.598L307.319,436.598Z" style="fill:rgb(231,58,94);"/>
                    <path id="Shape21" serif:id="Shape" d="M185.828,56.931C185.828,56.931 204.161,60.431 201.411,48.681C201.411,48.681 192.161,48.598 185.828,56.931Z" style="fill:rgb(82,59,93);"/>
                    <path id="Shape22" serif:id="Shape" d="M233.828,306.264L246.712,291.301L236.161,293.264L233.828,306.264Z" style="fill:rgb(0,128,163);"/>
                    <path id="Shape23" serif:id="Shape" d="M327.494,436.598L301.259,446.951L307.318,436.598L327.494,436.598Z" style="fill:rgb(204,57,93);"/>
                </g>
                <path id="Chair2" serif:id="Chair" d="M83.618,477.239C32.698,451.242 13.81,375.893 25.512,320.991C26.088,318.29 28.742,316.567 31.445,317.143C34.145,317.719 35.868,320.375 35.292,323.076C29.705,349.289 31.558,379.681 40.377,406.458C49.946,435.51 66.918,457.484 88.165,468.333C90.625,469.589 91.601,472.6 90.345,475.06C89.462,476.791 87.707,477.787 85.888,477.787C85.123,477.787 84.346,477.611 83.618,477.239Z" style="fill:rgb(58,59,57);"/>
                <path id="Chair3" serif:id="Chair" d="M55.258,270.168C46.469,268.994 37.801,266.909 29.44,263.956C25.142,262.437 20.525,260.669 16.158,261.976C10.12,263.783 7.26,270.538 5.416,276.565C2.026,287.649 -0.611,299.17 0.124,310.737C3.133,358.067 80.012,359.244 98.447,322.374C105.901,307.578 102.169,287.175 88.294,278.124C78.716,271.875 66.594,271.682 55.258,270.168Z" style="fill:rgb(82,59,93);"/>
                <g id="Boards" transform="matrix(1,0,0,1,362,0)">
                    <path id="Shape24" serif:id="Shape" d="M248.531,216.365L147.828,202.585L147.828,116.645L248.531,126.115L248.531,216.365Z" style="fill:rgb(82,59,93);"/>
                    <path id="Shape25" serif:id="Shape" d="M240.103,48.701C239.988,48.701 239.872,48.699 239.756,48.694L203.782,47.26C199.239,47.079 195.68,43.375 195.68,38.827L195.68,8.439C195.68,3.786 199.465,0 204.119,0L240.092,0C244.745,0 248.531,3.786 248.531,8.439L248.531,40.262C248.531,42.58 247.61,44.741 245.939,46.347C244.352,47.872 242.291,48.701 240.103,48.701" style="fill:rgb(179,224,208);"/>
                    <path id="Shape26" serif:id="Shape" d="M177.087,150.56L80.764,144.232L80.57,98.844L85.57,98.823L125.479,40L125.479,35L177.087,35L177.087,150.56Z" style="fill:rgb(179,224,208);"/>
                    <g id="Shape27" serif:id="Shape" transform="matrix(0.768419,0,0,1,29.6562,0)">
                        <path d="M114.361,105.431C114.044,105.431 113.726,105.421 113.405,105.4L14.442,98.97C6.533,98.456 0.091,91.608 0.081,83.705L0,18.31C-0.004,14.428 1.52,10.857 4.293,8.256C7.076,5.645 10.754,4.345 14.655,4.599L113.618,11.03C121.527,11.544 127.969,18.391 127.979,26.294L128.06,91.689C128.065,95.571 126.54,99.142 123.768,101.743C121.214,104.14 117.903,105.431 114.361,105.431" style="fill:rgb(108,73,211);stroke:white;stroke-width:5.06px;"/>
                    </g>
                    <path id="Shape28" serif:id="Shape" d="M153.605,22.384L141.828,3L165.383,3L153.605,22.384Z" style="fill:rgb(125,177,161);"/>
                    <path id="Shape29" serif:id="Shape" d="M44.437,144.724L21.839,142.786L33.97,123.622L44.437,144.724Z" style="fill:rgb(125,177,161);"/>
                </g>
                <path id="Cup" d="M502.347,314.942C502.347,319.315 498.79,322.873 494.418,322.873L494.329,322.873L494.329,300.87L494.418,300.87C498.79,300.87 502.347,304.427 502.347,308.8L502.347,314.942ZM494.329,294.339L494.329,289.63L457.768,289.63L457.768,330.441C457.768,332.468 459.412,334.112 461.44,334.112L490.657,334.112C492.685,334.112 494.329,332.468 494.329,330.441L494.329,329.403L494.418,329.403C502.391,329.403 508.879,322.916 508.879,314.942L508.879,308.8C508.879,300.826 502.391,294.339 494.418,294.339L494.329,294.339Z" style="fill:rgb(0,166,80);"/>
            </g>
        </g>
        <g transform="matrix(1.89633,0,0,1.89633,419.256,18.408)">
            <path d="M7.026,3.508C7.026,1.571 5.453,0 3.513,0C1.573,0 0,1.571 0,3.508L0,35.084C0,37.021 1.573,38.592 3.513,38.592C5.453,38.592 7.026,37.021 7.026,35.084L7.026,3.508Z" style="fill:white;fill-rule:nonzero;"/>
        </g>
        <g transform="matrix(1.89633,0,0,1.89633,419.256,18.408)">
            <path d="M20.505,10.525C21.791,10.525 22.832,11.566 22.832,12.85C22.832,13.508 22.558,14.102 22.118,14.525L14.051,24.559L23.513,33.189C23.563,33.232 23.612,33.277 23.659,33.322L23.667,33.33C24.236,33.887 24.589,34.664 24.589,35.522C24.589,37.218 23.213,38.592 21.515,38.592C20.619,38.592 19.812,38.209 19.25,37.598L1.756,24.559L19.078,10.964L19.105,10.993C19.494,10.7 19.979,10.525 20.505,10.525Z" style="fill:white;"/>
        </g>
    </g>
</svg>
