<?xml version="1.0" standalone="no"?>
<!DOCTYPE svg PUBLIC "-//W3C//DTD SVG 20010904//EN"
 "http://www.w3.org/TR/2001/REC-SVG-20010904/DTD/svg10.dtd">
<svg version="1.0" xmlns="http://www.w3.org/2000/svg"
 width="1440.000000pt" height="348.000000pt" viewBox="0 0 1440.000000 348.000000"
 preserveAspectRatio="xMidYMid meet">

<g transform="translate(0.000000,348.000000) scale(0.100000,-0.100000)"
fill="#000000" stroke="none">
<path d="M11173 3190 c-12 -5 -30 -22 -39 -37 -10 -15 -46 -71 -79 -123 -34
-52 -101 -158 -150 -235 -158 -251 -419 -658 -455 -710 -11 -16 -37 -57 -58
-90 -21 -33 -78 -122 -126 -198 -56 -88 -86 -146 -84 -160 3 -22 3 -22 288
-25 157 -2 305 0 328 3 65 10 128 79 251 278 58 92 136 217 175 277 39 60 91
141 115 179 52 82 111 129 173 137 38 5 48 2 77 -21 24 -21 31 -33 27 -50 -5
-20 -93 -165 -173 -285 -33 -50 -67 -103 -173 -270 -40 -63 -86 -135 -102
-159 -16 -24 -28 -53 -26 -65 3 -21 5 -21 311 -24 271 -2 313 0 344 14 51 25
91 69 148 162 28 46 67 108 87 140 20 31 55 86 78 122 22 36 67 106 100 155
127 196 191 306 188 323 -3 16 -34 17 -408 22 -432 5 -434 6 -460 56 -9 17 -9
27 3 50 8 17 18 45 22 64 6 37 14 26 -270 396 -45 59 -76 88 -88 83 -1 0 -12
-4 -24 -9z m74 -148 c21 -27 47 -61 58 -76 34 -47 129 -171 135 -176 3 -3 13
-17 23 -32 21 -33 21 -64 2 -98 -17 -29 -19 -74 -5 -99 11 -21 -2 -35 -65 -70
-43 -24 -96 -89 -160 -196 -22 -37 -54 -86 -71 -108 l-30 -42 -268 -3 c-256
-2 -268 -1 -264 16 5 20 180 300 229 367 16 22 38 57 50 78 11 21 39 67 62
102 64 97 79 120 163 257 44 71 84 128 91 128 6 0 29 -22 50 -48z m1063 -567
c0 -3 -8 -18 -19 -33 -10 -15 -43 -67 -74 -117 -31 -49 -72 -111 -91 -137
l-36 -48 -260 0 c-142 0 -261 4 -264 9 -6 9 26 65 102 181 42 64 44 72 27 128
l-7 22 311 0 c171 0 311 -2 311 -5z"/>
<path d="M774 2525 c-30 -18 -59 -52 -104 -122 -129 -200 -174 -270 -225 -348
-28 -44 -67 -105 -87 -135 -19 -30 -63 -99 -97 -152 -34 -53 -63 -109 -64
-125 l-2 -28 321 0 320 0 43 28 c28 19 60 57 99 118 61 96 208 326 271 424 21
33 63 99 94 146 30 47 69 97 86 112 32 27 87 47 129 47 28 0 72 -42 72 -68 0
-20 -70 -137 -205 -342 -136 -207 -254 -395 -263 -421 -19 -49 -22 -49 312
-49 l312 0 47 30 c48 30 62 50 304 428 43 67 106 166 141 220 111 172 144 231
138 247 -5 13 -101 15 -803 15 l-798 0 -41 -25z m558 -109 c-50 -69 -118 -172
-141 -215 -34 -64 -19 -61 -313 -61 -157 0 -268 4 -268 9 0 5 22 45 50 88 27
43 59 95 70 116 11 20 40 57 64 82 l43 45 271 0 271 0 -47 -64z m988 56 c0 -4
-20 -39 -44 -77 -25 -39 -61 -97 -81 -130 -20 -33 -48 -75 -61 -92 l-25 -33
-264 0 c-145 0 -266 4 -269 9 -3 4 29 62 70 127 72 112 76 121 70 161 l-6 43
305 0 c168 0 305 -4 305 -8z"/>
<path d="M2605 2527 c-36 -21 -79 -77 -184 -242 -10 -16 -53 -84 -96 -150 -43
-66 -88 -136 -100 -155 -12 -19 -38 -60 -57 -90 -106 -165 -149 -241 -146
-257 3 -17 38 -18 804 -18 l800 0 42 28 c39 25 57 50 162 216 11 19 20 46 18
60 l-3 26 -250 3 c-137 2 -278 0 -313 -3 -78 -8 -143 -49 -190 -120 -70 -105
-122 -145 -193 -145 -35 0 -51 5 -67 23 -37 40 -34 49 66 201 95 144 61 136
540 136 448 0 478 4 543 69 62 63 258 380 259 419 l0 22 -797 0 -798 0 -40
-23z m824 -63 c17 -14 31 -33 31 -42 0 -10 -31 -66 -69 -127 -81 -131 -134
-175 -209 -175 -33 0 -52 6 -69 22 -38 36 -35 47 63 198 52 81 90 118 140 135
56 20 79 18 113 -11z m-239 1 c0 -8 -4 -15 -10 -15 -5 0 -17 -15 -26 -32 -9
-18 -45 -76 -80 -129 -38 -57 -64 -107 -64 -123 l0 -26 -279 0 c-179 0 -282 4
-286 10 -4 6 12 38 34 71 23 34 41 64 41 68 0 12 95 146 115 161 36 27 48 29
303 29 218 1 252 -1 252 -14z m960 4 c0 -6 -22 -43 -50 -82 -27 -39 -50 -76
-50 -82 0 -7 -9 -20 -20 -30 -12 -11 -28 -33 -36 -49 -8 -17 -23 -42 -34 -56
l-19 -25 -270 0 c-149 0 -271 4 -271 8 0 4 8 20 18 35 123 180 141 218 125
262 l-11 30 309 0 c217 0 309 -3 309 -11z"/>
<path d="M4399 2527 c-33 -20 -89 -77 -89 -90 0 -6 -47 -79 -195 -307 -243
-374 -306 -478 -302 -500 2 -13 59 -16 420 -20 l418 -5 20 -25 c13 -17 17 -33
13 -50 -3 -14 -8 -51 -11 -83 -4 -51 -2 -61 21 -90 33 -41 141 -180 226 -290
76 -100 98 -114 132 -87 27 21 37 34 173 250 54 85 148 234 210 330 190 298
312 494 318 512 3 10 -1 24 -9 33 -13 13 -58 15 -297 15 -385 0 -374 5 -517
-220 -51 -80 -102 -156 -114 -169 -50 -56 -150 -69 -191 -25 -28 30 -29 37
-14 67 19 36 213 344 344 544 79 121 124 159 197 169 41 6 49 4 72 -19 35 -35
33 -55 -14 -129 -76 -120 -79 -118 274 -118 l291 0 55 28 c42 21 64 41 91 82
20 30 55 83 78 118 23 35 41 71 39 80 -3 16 -64 17 -803 19 l-800 1 -36 -21z
m591 -55 c0 -5 -11 -19 -25 -32 -14 -13 -25 -28 -25 -34 0 -7 -13 -27 -29 -46
-15 -19 -40 -59 -55 -88 -15 -29 -43 -71 -63 -92 l-35 -40 -264 0 c-145 0
-264 4 -264 9 0 19 165 265 204 303 l28 28 264 0 c145 0 264 -4 264 -8z m950
-1 c0 -18 -102 -161 -123 -173 -23 -12 -496 -24 -524 -14 -12 5 -8 17 17 62
26 45 31 63 27 95 l-5 39 304 0 c177 0 304 -4 304 -9z"/>
<path d="M6244 2525 c-40 -24 -53 -40 -130 -161 -34 -54 -120 -189 -245 -383
-19 -31 -65 -101 -101 -156 -35 -55 -75 -119 -88 -142 -44 -79 -108 -74 792
-71 l803 3 38 25 c23 15 57 55 85 100 59 94 396 623 452 709 22 35 40 71 38
80 -3 14 -36 16 -322 19 l-318 2 -44 -27 c-35 -22 -62 -56 -126 -158 -45 -71
-118 -186 -163 -255 -45 -69 -97 -149 -116 -179 -140 -222 -159 -242 -241
-249 -48 -4 -56 -1 -81 23 -15 15 -27 32 -27 37 0 19 50 102 205 343 18 28 59
92 91 143 32 51 79 123 103 160 62 96 80 132 74 148 -4 12 -60 14 -322 14
l-316 0 -41 -25z m586 -53 c0 -5 -25 -47 -56 -93 -31 -46 -68 -104 -82 -129
-14 -25 -37 -60 -51 -77 l-26 -33 -267 0 c-208 0 -268 3 -267 13 1 24 194 302
219 314 29 15 530 19 530 5z m960 -1 c0 -6 -5 -13 -11 -17 -6 -3 -19 -25 -29
-48 -10 -22 -51 -90 -92 -151 l-74 -110 -267 -3 c-210 -2 -267 0 -267 10 0 35
176 298 210 315 30 15 530 19 530 4z"/>
<path d="M8073 2529 c-36 -18 -55 -41 -125 -151 -46 -71 -123 -191 -172 -266
-136 -209 -169 -261 -216 -337 -23 -38 -52 -83 -63 -99 -15 -21 -17 -33 -10
-45 9 -14 49 -16 317 -19 l306 -2 48 24 c32 16 57 39 78 72 18 27 100 157 184
289 229 359 262 411 298 467 56 87 71 83 -288 86 -303 2 -317 1 -357 -19z
m577 -60 c0 -9 -137 -225 -195 -306 -16 -23 -18 -23 -280 -23 -147 0 -266 4
-269 9 -6 8 13 40 142 234 24 37 56 74 71 82 33 18 531 22 531 4z"/>
<path d="M8929 2530 c-43 -23 -67 -51 -134 -160 -27 -44 -98 -154 -156 -243
-58 -90 -112 -174 -119 -187 -7 -14 -22 -36 -32 -50 -54 -70 -149 -236 -146
-254 3 -21 7 -21 312 -24 406 -3 360 -25 536 251 52 81 115 181 140 221 102
165 214 327 246 355 32 29 88 51 127 51 10 0 32 -13 48 -30 38 -37 35 -46 -40
-162 -31 -48 -81 -126 -111 -174 -30 -48 -75 -117 -99 -153 -107 -162 -202
-323 -199 -339 3 -16 28 -17 303 -20 200 -2 313 1 338 8 37 11 127 88 127 109
0 6 13 30 29 53 52 79 145 223 201 311 70 112 161 254 217 338 23 37 43 78 43
93 l0 26 -797 0 c-767 -1 -799 -2 -834 -20z m574 -72 c-11 -13 -28 -36 -36
-53 -8 -16 -25 -40 -36 -52 -12 -12 -21 -25 -21 -29 0 -18 -94 -155 -113 -166
-15 -8 -108 -13 -279 -16 -224 -4 -258 -3 -258 10 0 9 29 59 65 113 36 53 65
98 65 100 0 2 11 21 25 42 50 73 49 73 344 73 l264 0 -20 -22z m967 18 c0 -13
-152 -248 -198 -306 l-24 -30 -264 0 c-145 0 -264 3 -264 6 0 8 22 46 98 166
49 80 54 92 48 128 l-6 40 305 0 c168 0 305 -2 305 -4z"/>
<path d="M12575 2527 c-45 -25 -77 -69 -267 -367 -72 -113 -159 -249 -195
-303 -100 -153 -135 -221 -121 -235 9 -9 204 -12 796 -12 l785 0 45 22 c48 25
62 40 124 138 22 36 64 101 93 145 28 44 78 122 111 173 32 51 92 143 131 205
111 172 133 210 133 235 l0 22 -797 0 -798 0 -40 -23z m824 -63 c17 -14 31
-31 31 -38 0 -14 -169 -289 -264 -431 -38 -55 -76 -116 -86 -136 -28 -54 -98
-138 -133 -160 -44 -26 -120 -26 -147 1 -24 24 -25 51 -5 89 20 39 157 257
193 306 16 22 35 51 42 65 33 62 161 248 191 277 59 55 132 66 178 27z m-239
2 c0 -8 -4 -18 -10 -21 -13 -8 -160 -232 -160 -244 0 -5 -14 -21 -31 -35 l-31
-26 -259 0 c-178 0 -259 3 -259 11 0 15 42 86 122 206 46 69 77 105 96 111 15
6 138 11 280 11 213 1 252 -1 252 -13z m950 5 c0 -16 -70 -131 -79 -131 -5 0
-11 -8 -13 -18 -3 -11 -29 -56 -58 -100 l-52 -82 -269 0 c-219 0 -269 3 -269
13 0 8 32 62 71 121 61 93 70 112 69 149 -1 23 -1 45 -1 50 1 11 601 9 601 -2z"/>
<path d="M10964 1539 c-43 -47 -85 -59 -213 -59 l-120 0 -32 -45 -32 -45 -69
0 -68 0 0 -45 0 -45 40 0 c31 0 40 -4 40 -18 0 -20 -81 -162 -137 -241 -21
-29 -42 -61 -48 -70 -23 -39 -56 -91 -99 -158 -25 -40 -46 -80 -46 -90 0 -10
27 -49 61 -88 33 -38 71 -89 85 -112 30 -50 47 -54 71 -16 9 16 46 72 82 126
36 54 80 122 97 150 17 29 50 81 72 117 50 79 119 189 148 236 11 19 45 64 74
99 39 47 60 65 78 65 l24 0 -30 -37 c-16 -21 -50 -74 -76 -118 -72 -123 -161
-263 -180 -284 -14 -15 -15 -24 -6 -40 11 -21 16 -21 402 -21 l392 0 41 44
c37 40 125 175 125 192 0 4 14 25 31 48 87 118 120 169 117 184 -3 16 -36 17
-381 20 l-377 2 0 49 c0 44 -2 49 -26 55 l-26 7 41 44 c45 49 51 73 23 98 -25
23 -55 21 -78 -4z m414 -327 c2 -13 -3 -31 -10 -40 -8 -9 -33 -48 -57 -87 -23
-38 -47 -79 -54 -90 -62 -102 -120 -160 -153 -153 -27 5 -41 35 -27 56 22 30
97 151 113 180 26 47 90 131 113 147 32 23 71 15 75 -13z"/>
<path d="M8238 1273 c-24 -28 -158 -233 -250 -381 -22 -35 -37 -70 -34 -78 4
-11 37 -14 162 -14 l157 0 42 43 c22 24 55 68 73 98 125 211 195 299 239 299
19 0 23 -5 23 -33 0 -24 -19 -62 -72 -143 -40 -60 -77 -117 -83 -126 -89 -144
-92 -138 91 -138 175 0 196 7 244 89 18 31 37 59 42 62 5 3 21 29 36 57 56
105 130 201 169 217 67 28 81 3 36 -68 -14 -23 -36 -58 -48 -77 -12 -19 -41
-66 -66 -105 -157 -242 -157 -243 -133 -281 10 -16 30 -43 44 -60 14 -18 47
-59 74 -93 28 -33 53 -61 57 -61 8 0 72 88 81 111 4 10 46 78 95 152 48 74 96
148 105 163 10 16 38 61 63 99 25 39 53 83 62 98 10 16 35 52 56 80 25 34 37
60 35 77 l-3 25 -641 3 c-601 2 -642 1 -656 -15z"/>
<path d="M9599 1263 c-14 -16 -36 -46 -49 -68 -13 -22 -47 -77 -77 -122 -29
-44 -53 -86 -53 -92 0 -6 -4 -11 -9 -11 -5 0 -12 -8 -15 -18 -3 -9 -22 -41
-41 -71 -28 -42 -33 -56 -24 -67 9 -11 82 -14 399 -14 l388 0 29 24 c29 24 44
45 111 151 17 28 66 101 107 164 42 62 75 121 73 130 -3 14 -44 16 -409 19
l-405 2 -25 -27z m428 -39 c3 -9 -1 -28 -10 -43 -8 -14 -27 -48 -41 -76 -15
-27 -35 -59 -45 -70 -10 -11 -35 -48 -55 -82 -59 -99 -121 -137 -149 -92 -8
12 -1 31 29 78 21 34 48 77 59 95 22 38 87 132 107 157 15 18 67 48 86 49 7 0
15 -7 19 -16z"/>
<path d="M11869 1268 c-11 -13 -34 -48 -50 -78 -16 -30 -43 -75 -59 -100 -42
-64 -111 -175 -138 -221 -40 -66 -34 -69 141 -69 176 0 185 3 234 88 15 26 42
67 60 91 18 24 33 49 33 55 2 26 118 172 153 191 34 18 38 19 53 4 14 -15 14
-19 0 -47 -9 -17 -16 -40 -16 -52 0 -19 5 -20 150 -20 178 0 190 4 243 84 41
61 45 81 21 90 -9 3 -193 6 -409 6 l-394 0 -22 -22z"/>
<path d="M12814 1283 c-12 -2 -30 -14 -41 -26 -34 -37 -124 -198 -121 -216 3
-14 29 -17 208 -21 196 -5 205 -6 208 -25 3 -29 -53 -112 -91 -135 -60 -37
-96 -15 -63 40 9 16 16 38 16 49 0 20 -4 21 -165 21 -188 0 -183 2 -234 -93
-44 -81 -62 -77 374 -77 242 0 393 4 405 10 21 11 128 159 148 204 7 16 9 33
5 37 -5 5 -101 10 -213 11 -237 3 -237 3 -178 93 37 56 87 90 118 80 24 -8 25
-17 4 -61 -29 -61 -22 -64 142 -64 163 0 185 7 234 71 42 56 49 72 39 91 -9
17 -36 18 -392 17 -210 -1 -392 -4 -403 -6z"/>
</g>
</svg>
