<?xml version="1.0" standalone="no"?>
<!DOCTYPE svg PUBLIC "-//W3C//DTD SVG 20010904//EN"
 "http://www.w3.org/TR/2001/REC-SVG-20010904/DTD/svg10.dtd">
<svg version="1.0" xmlns="http://www.w3.org/2000/svg"
 width="1440.000000pt" height="348.000000pt" viewBox="0 0 1440.000000 348.000000"
 preserveAspectRatio="xMidYMid meet">

<g transform="translate(0.000000,348.000000) scale(0.100000,-0.100000)"
fill="#000000" stroke="none">
<path d="M11157 3173 c-15 -16 -192 -289 -264 -408 -14 -22 -46 -73 -71 -112
-26 -40 -92 -144 -147 -230 -102 -161 -188 -294 -225 -348 -37 -54 -243 -379
-257 -408 -29 -56 -22 -57 301 -57 266 0 295 2 334 20 53 24 91 64 148 160 25
41 62 101 82 132 20 32 95 149 166 260 77 122 148 222 178 250 51 50 111 74
151 62 35 -10 67 -45 67 -73 0 -24 -14 -48 -159 -271 -116 -179 -219 -342
-279 -439 -18 -30 -32 -64 -30 -75 3 -21 9 -21 301 -24 l297 -2 49 24 c63 32
72 44 237 311 33 54 112 176 229 355 79 121 125 204 125 227 l0 23 -404 0
-404 0 -31 26 c-35 29 -38 46 -16 97 27 64 21 78 -96 234 -221 294 -239 310
-282 266z m145 -193 c184 -241 181 -236 173 -283 -4 -23 -8 -71 -8 -107 l-2
-65 -53 -31 c-52 -31 -111 -97 -148 -164 -10 -19 -22 -37 -25 -40 -4 -3 -23
-33 -43 -68 -21 -34 -47 -69 -60 -77 -19 -12 -66 -15 -278 -12 -141 1 -260 5
-264 10 -8 8 24 70 69 132 16 22 59 88 95 146 37 59 81 128 97 154 69 107 130
202 150 235 12 19 42 67 67 105 24 39 60 96 78 128 21 35 40 56 49 55 8 -2 54
-55 103 -118z m1013 -501 c4 -5 -1 -19 -10 -29 -16 -18 -49 -70 -126 -198 -17
-30 -46 -69 -64 -88 l-33 -34 -258 2 c-233 3 -259 5 -262 20 -3 16 6 32 93
168 23 36 45 70 49 77 4 7 -1 27 -10 44 -13 26 -14 33 -2 40 20 13 615 11 623
-2z"/>
<path d="M787 2524 c-49 -26 -61 -42 -245 -329 -24 -38 -63 -99 -87 -135 -192
-294 -256 -401 -253 -422 l3 -23 296 -3 c387 -3 373 -9 510 211 45 72 112 177
147 232 36 55 80 123 97 150 18 28 58 89 88 137 63 97 102 131 168 148 57 14
100 -3 118 -49 15 -35 17 -31 -104 -216 -46 -71 -130 -202 -186 -290 -56 -88
-119 -187 -141 -220 -68 -104 -81 -100 267 -103 l299 -2 54 27 c30 15 62 39
70 53 9 14 49 75 89 137 40 61 73 113 73 116 0 2 37 60 83 130 45 69 109 169
142 222 33 53 77 123 98 156 67 103 143 94 -753 96 l-785 2 -48 -25z m597 -43
c3 -5 -2 -15 -11 -22 -9 -8 -56 -75 -104 -149 -49 -74 -95 -144 -102 -155 -14
-19 -27 -20 -278 -22 -146 -1 -270 2 -278 6 -13 9 5 43 106 201 101 158 80
150 400 150 144 0 264 -4 267 -9z m935 0 c14 -9 15 -7 -64 -131 -140 -217
-132 -207 -167 -213 -26 -3 -478 -2 -510 2 -17 2 -5 32 40 102 96 149 105 167
93 201 -6 17 -11 35 -11 39 0 12 601 11 619 0z"/>
<path d="M2615 2527 c-43 -24 -71 -59 -159 -198 -33 -52 -89 -139 -124 -194
-36 -55 -81 -125 -100 -155 -19 -30 -50 -77 -67 -105 -18 -27 -56 -87 -84
-132 -34 -52 -51 -90 -49 -105 l3 -23 775 -3 c574 -2 783 1 805 9 70 28 100
62 202 228 61 99 79 93 -279 89 l-313 -3 -50 -31 c-33 -20 -59 -47 -78 -80
-56 -96 -132 -154 -200 -154 -47 0 -87 33 -87 71 0 36 6 48 83 167 96 147 53
136 567 142 l435 5 45 27 c34 19 58 46 94 105 27 43 77 121 111 173 79 121 85
133 85 164 l0 26 -787 0 -788 0 -40 -23z m814 -53 c46 -38 40 -64 -38 -189
-58 -94 -76 -115 -122 -142 -73 -45 -127 -45 -163 -2 -14 17 -26 36 -26 42 0
21 122 215 156 248 36 35 103 67 141 68 12 1 35 -11 52 -25z m-229 7 c0 -10
-7 -21 -118 -189 -34 -52 -62 -105 -62 -117 0 -13 -6 -27 -12 -31 -14 -9 -484
-14 -535 -7 -18 3 -33 11 -33 19 0 16 99 179 153 252 21 30 53 60 70 68 38 16
537 21 537 5z m956 -5 c3 -8 -13 -40 -36 -72 -24 -31 -48 -66 -54 -78 -24 -44
-90 -142 -109 -164 -21 -23 -22 -23 -295 -21 -224 1 -272 4 -268 14 3 8 28 49
56 91 29 43 63 100 76 127 23 44 24 50 11 77 -8 16 -12 31 -9 34 3 3 144 6
314 6 259 0 310 -2 314 -14z"/>
<path d="M4409 2525 c-25 -13 -56 -40 -71 -62 -37 -56 -109 -167 -167 -258
-28 -44 -65 -100 -81 -125 -67 -98 -231 -357 -251 -396 -41 -78 -61 -74 400
-74 l410 0 26 -27 c28 -31 30 -47 10 -83 -8 -14 -14 -43 -14 -65 0 -36 14 -58
160 -245 88 -113 167 -209 175 -213 38 -21 44 -13 225 272 57 90 143 225 191
300 48 75 110 174 139 221 28 47 72 117 97 155 25 39 57 87 70 107 13 20 22
45 20 55 -3 17 -22 18 -303 21 l-299 2 -53 -26 c-49 -23 -61 -37 -129 -142
-139 -215 -148 -226 -187 -246 -21 -10 -55 -20 -77 -23 -35 -5 -43 -2 -75 30
-42 42 -41 48 31 159 26 40 62 96 79 123 18 28 56 88 87 135 30 47 85 134 123
194 74 116 118 158 189 177 35 10 46 8 76 -7 51 -27 53 -73 7 -145 -43 -68
-48 -84 -34 -98 8 -8 101 -11 306 -11 380 1 359 -8 480 181 33 53 61 106 61
117 l0 22 -787 0 -788 -1 -46 -24z m587 -46 c3 -6 -5 -23 -18 -37 -34 -38 -78
-104 -135 -202 -17 -31 -44 -66 -58 -80 l-26 -25 -260 0 c-143 0 -266 3 -272
7 -11 7 -4 19 139 233 80 119 64 114 366 115 174 0 259 -4 264 -11z m951 -5
c2 -7 -3 -18 -10 -26 -8 -8 -29 -39 -46 -70 -56 -98 -36 -93 -342 -96 -148 -2
-269 0 -269 5 0 4 14 36 32 70 29 55 32 65 22 92 -7 16 -9 32 -6 36 11 11 615
1 619 -11z"/>
<path d="M6252 2524 c-43 -26 -72 -66 -215 -294 -37 -58 -80 -125 -97 -150
-17 -25 -49 -74 -72 -110 -22 -36 -69 -108 -104 -161 -35 -53 -71 -112 -80
-132 -34 -72 -92 -67 775 -67 l779 0 53 28 c38 20 63 42 84 75 17 26 62 97
100 158 39 61 88 139 110 173 22 34 69 108 105 164 36 57 93 148 128 202 35
55 62 108 60 117 -3 17 -26 18 -312 21 l-309 2 -49 -31 c-27 -18 -55 -42 -63
-53 -152 -246 -205 -330 -236 -376 -20 -30 -60 -91 -88 -135 -28 -44 -60 -93
-71 -110 -11 -16 -35 -52 -53 -80 -35 -54 -81 -83 -147 -92 -35 -5 -43 -2 -75
30 -42 42 -41 48 31 159 26 40 62 96 79 123 137 215 180 282 235 370 34 55 71
113 82 128 11 15 18 36 16 45 -3 16 -30 17 -313 19 l-310 3 -43 -26z m576 -56
c2 -9 -17 -46 -42 -82 -25 -36 -63 -96 -86 -133 -22 -38 -50 -79 -61 -93 l-21
-25 -265 0 c-146 0 -270 3 -275 6 -12 8 1 32 115 202 57 86 87 122 110 132 25
11 86 14 277 12 219 -2 245 -4 248 -19z m967 11 c4 -6 -2 -21 -14 -33 -12 -12
-21 -28 -21 -34 0 -6 -38 -70 -85 -141 -84 -127 -86 -130 -128 -136 -52 -7
-494 -1 -503 7 -7 7 41 102 72 144 13 17 24 34 24 37 0 20 99 141 125 152 39
17 520 21 530 4z"/>
<path d="M8077 2524 c-49 -25 -48 -24 -183 -239 -20 -33 -80 -125 -132 -205
-170 -258 -272 -426 -272 -444 0 -8 7 -17 16 -20 9 -3 147 -6 307 -6 l292 0
50 28 c43 23 60 43 129 152 43 69 96 152 117 185 21 33 57 89 80 125 22 36 57
90 77 122 118 182 183 292 180 306 -3 15 -33 17 -308 19 l-305 2 -48 -25z
m579 -48 c3 -8 -3 -27 -14 -43 -37 -53 -137 -204 -162 -246 -18 -29 -35 -43
-55 -47 -17 -3 -140 -5 -275 -5 -211 0 -245 2 -248 15 -1 9 21 52 51 97 29 45
71 109 93 143 62 98 64 99 357 100 206 0 249 -2 253 -14z"/>
<path d="M8939 2530 c-44 -23 -79 -64 -144 -169 -27 -45 -87 -139 -133 -209
-83 -128 -96 -149 -194 -302 -112 -176 -119 -189 -116 -212 l3 -23 289 -3
c239 -2 298 0 336 13 47 16 97 59 120 105 8 14 69 113 138 220 69 107 155 242
191 298 103 162 136 201 194 228 68 31 92 30 129 -6 24 -25 29 -37 25 -59 -7
-31 -96 -176 -312 -506 -18 -27 -63 -99 -99 -159 -52 -85 -64 -111 -55 -122 9
-11 67 -14 305 -14 278 0 297 1 339 21 51 24 83 59 139 150 21 35 63 101 93
147 117 181 162 250 209 326 27 43 66 104 86 135 20 31 46 73 57 93 41 73 98
68 -778 68 -753 -1 -788 -2 -822 -20z m585 -49 c3 -5 -1 -15 -10 -22 -18 -15
-66 -87 -139 -209 -31 -52 -61 -90 -77 -98 -39 -19 -524 -24 -539 -6 -10 13 4
38 132 232 16 24 29 47 29 52 0 5 19 20 43 34 l42 26 257 0 c141 0 259 -4 262
-9z m949 2 c7 -6 -7 -33 -71 -133 -66 -104 -126 -191 -141 -203 -15 -12 -456
-23 -518 -12 -35 6 -35 16 -3 65 9 14 41 63 70 110 47 76 52 89 46 126 -3 23
-2 44 1 48 8 8 608 8 616 -1z"/>
<path d="M12595 2533 c-48 -25 -70 -50 -137 -152 -34 -53 -98 -152 -143 -221
-45 -69 -103 -160 -131 -203 -27 -42 -77 -121 -111 -175 -79 -123 -91 -151
-72 -163 8 -5 351 -9 787 -9 765 0 773 0 817 21 49 23 76 52 134 144 21 33 89
140 152 237 63 98 132 207 154 242 22 36 66 105 98 155 31 50 57 102 57 116
l0 25 -787 0 c-699 -1 -791 -3 -818 -17z m812 -65 c40 -38 37 -47 -102 -268
-40 -63 -104 -162 -142 -220 -38 -58 -81 -127 -97 -153 -57 -99 -129 -157
-196 -157 -33 0 -70 15 -82 34 -16 23 -6 82 20 123 15 23 65 101 112 173 47
72 99 153 115 180 149 240 180 278 250 304 49 19 91 13 122 -16z m-232 13 c3
-6 -7 -25 -23 -43 -35 -40 -142 -203 -159 -240 -6 -15 -27 -37 -45 -48 -31
-19 -50 -20 -275 -20 -233 0 -273 3 -273 20 0 20 165 274 197 302 10 9 30 21
43 27 32 13 527 14 535 2z m942 -6 c3 -9 -1 -23 -9 -33 -8 -9 -26 -36 -38 -59
-13 -24 -27 -43 -30 -43 -4 0 -17 -21 -30 -47 -25 -50 -87 -143 -104 -155 -14
-10 -519 -9 -534 1 -16 10 -2 38 84 171 50 77 55 89 50 126 -3 23 -2 44 1 48
3 3 141 6 305 6 259 0 299 -2 305 -15z"/>
<path d="M8240 1420 l0 -80 1166 0 1165 0 -29 -42 c-50 -74 -99 -151 -120
-194 -12 -23 -36 -61 -55 -86 -19 -25 -41 -56 -47 -69 -7 -13 -39 -64 -71
-113 -33 -48 -59 -98 -59 -110 0 -12 23 -49 51 -81 28 -33 64 -82 82 -108 18
-28 37 -47 46 -45 8 2 42 46 76 99 33 53 74 118 92 145 17 27 53 83 79 124 26
41 62 98 79 125 18 28 51 82 75 120 40 66 88 131 154 211 l28 34 1334 0 1334
0 0 75 0 75 -2690 0 -2690 0 0 -80z"/>
<path d="M8254 1282 c-13 -8 -124 -171 -124 -181 0 -4 -19 -34 -43 -66 -24
-33 -46 -67 -50 -75 -4 -8 -25 -42 -46 -75 -21 -33 -37 -63 -34 -67 2 -5 74
-8 160 -8 l157 0 43 46 c23 26 53 65 66 88 59 102 141 224 175 259 27 28 44
37 69 37 29 0 33 -3 33 -27 0 -31 -23 -73 -137 -244 -45 -70 -83 -134 -83
-143 0 -14 19 -16 150 -16 86 0 159 5 173 11 13 6 40 36 60 67 20 32 40 62 44
68 18 24 34 51 43 73 6 13 30 49 54 81 24 32 49 68 56 80 21 39 115 66 126 36
5 -13 -80 -161 -187 -326 -26 -41 -62 -97 -78 -124 l-29 -49 21 -32 c35 -52
80 -109 126 -161 l43 -49 24 30 c12 16 35 52 50 80 15 27 44 73 64 100 21 28
47 69 59 90 12 22 32 54 44 71 22 31 48 73 77 123 23 40 90 143 111 171 10 14
31 45 46 69 45 74 75 71 -631 71 -342 0 -626 -4 -632 -8z"/>
<path d="M9604 1258 c-16 -18 -40 -53 -53 -78 -13 -25 -32 -54 -41 -65 -23
-28 -80 -123 -80 -135 0 -6 -4 -10 -9 -10 -10 0 -91 -135 -91 -151 0 -5 164
-9 397 -9 l397 0 44 48 c24 26 51 60 59 77 22 41 139 221 179 274 27 34 31 47
23 62 -9 18 -28 19 -402 19 l-393 0 -30 -32z m426 -47 c0 -15 -11 -45 -25 -65
-14 -20 -25 -43 -25 -50 0 -7 -15 -30 -34 -52 -18 -21 -43 -58 -55 -81 -11
-23 -39 -61 -60 -83 -33 -35 -45 -41 -73 -38 -28 3 -33 7 -36 32 -2 16 1 32 6
35 8 5 23 29 87 136 89 149 132 192 193 194 18 1 22 -4 22 -28z"/>
<path d="M10952 1262 c-15 -15 -34 -41 -43 -57 -26 -48 -141 -234 -187 -304
-24 -35 -41 -70 -38 -77 4 -12 77 -14 397 -14 l393 0 43 46 c23 26 54 67 69
93 14 25 38 66 52 91 14 25 34 56 44 70 11 14 39 53 64 87 69 97 86 93 -377
93 l-391 0 -26 -28z m433 -42 c6 -20 -7 -45 -85 -165 -22 -33 -43 -67 -47 -75
-15 -33 -84 -120 -104 -130 -11 -6 -32 -10 -47 -8 -43 5 -41 46 6 115 22 32
58 90 80 128 22 39 58 89 80 113 32 34 45 42 75 42 27 0 37 -5 42 -20z"/>
<path d="M11895 1278 c-28 -16 -43 -36 -66 -88 -11 -25 -28 -54 -38 -65 -10
-11 -30 -40 -44 -65 -15 -25 -54 -88 -86 -140 -33 -52 -57 -98 -55 -102 3 -5
74 -8 158 -8 180 0 182 1 245 109 22 37 47 73 55 81 9 7 16 18 16 25 0 23 123
186 151 201 64 33 102 3 67 -54 -35 -57 -25 -62 127 -62 174 0 192 8 262 114
43 66 45 66 -391 66 -268 -1 -387 -4 -401 -12z"/>
<path d="M12810 1272 c-33 -16 -60 -52 -133 -178 -39 -67 -36 -68 195 -74 235
-6 233 -5 174 -94 -44 -67 -56 -77 -105 -83 -34 -5 -40 -2 -46 17 -4 13 -1 28
8 38 22 27 29 55 15 64 -18 11 -281 10 -311 -1 -27 -11 -102 -125 -92 -141 4
-6 145 -10 399 -10 l393 0 21 23 c32 34 132 188 132 203 0 11 -37 14 -199 14
-168 0 -202 2 -215 16 -22 21 -20 29 14 79 57 82 120 117 149 81 10 -11 8 -23
-8 -54 -29 -57 -20 -62 134 -62 118 0 133 2 168 23 40 24 107 101 107 121 0
34 -21 36 -394 36 -328 -1 -375 -3 -406 -18z"/>
</g>
</svg>
